<?xml version="1.0" encoding="iso-8859-1"?>
<!-- Generator: Adobe Illustrator 29.6.1, SVG Export Plug-In . SVG Version: 9.03 Build 0)  -->
<svg version="1.1" id="Layer_1" xmlns="http://www.w3.org/2000/svg" xmlns:xlink="http://www.w3.org/1999/xlink" x="0px" y="0px"
	 viewBox="0 0 1358 538" style="enable-background:new 0 0 1358 538;" xml:space="preserve">
<g>
	<g>
		<g>
			<path d="M588.983,281.691c-6.878,0-11.562-4.086-11.562-9.868c0-6.478,5.183-10.465,15.846-12.654l12.462-2.396v10.268
				C605.729,275.712,598.85,281.691,588.983,281.691 M571.343,307.405c16.242,0,30.097-7.076,35.68-18.238
				c0,5.781,0.4,10.767,1.492,15.649h41.467c-1.497-5.584-2.594-15.846-2.594-26.411v-38.971c0-30.7-17.141-44.357-54.319-44.357
				c-33.091,0-53.721,13.954-55.618,38.774h42.163c0.598-8.573,4.882-12.857,13.257-12.857c7.273,0,11.36,3.889,11.36,11.958v4.684
				l-29.005,4.388c-15.649,2.392-25.813,5.979-32.291,11.562c-5.984,5.183-8.771,12.259-8.771,21.825
				C534.165,294.548,549.013,307.405,571.343,307.405 M449.542,304.816h47.445l36.58-107.145h-44.056l-13.559,58.306
				c-1.492,6.181-1.69,9.67-2.392,14.552h-0.395c-0.598-4.882-0.899-8.37-2.392-14.552l-13.756-58.306h-44.056L449.542,304.816z
				 M349.374,281.691c-6.878,0-11.562-4.086-11.562-9.868c0-6.478,5.183-10.465,15.846-12.654l12.462-2.396v10.268
				C366.12,275.712,359.242,281.691,349.374,281.691 M331.734,307.405c16.242,0,30.097-7.076,35.68-18.238
				c0,5.781,0.4,10.767,1.492,15.649h41.467c-1.497-5.584-2.594-15.846-2.594-26.411v-38.971c0-30.7-17.141-44.357-54.319-44.357
				c-33.091,0-53.726,13.954-55.618,38.774h42.163c0.598-8.573,4.882-12.857,13.257-12.857c7.273,0,11.36,3.889,11.36,11.958v4.684
				l-29.104,4.289c-15.649,2.392-25.813,5.979-32.296,11.562c-5.979,5.183-8.771,12.259-8.771,21.825
				C294.452,294.548,309.405,307.405,331.734,307.405 M138.37,304.816h41.264v-72.858v-20.135h0.4
				c1.892,4.887,5.579,11.76,8.771,18.238l42.756,74.854h46.25V152.617h-41.264v74.158v19.038h-0.4
				c-1.892-5.183-6.176-13.954-9.171-19.735l-40.167-73.56h-48.34L138.37,304.816z"/>
		</g>
		<rect x="138.37" y="345.98" width="508.519" height="41.264"/>
	</g>
	<path d="M1169.946,295.497c-14.29,0-23.248-7.249-23.248-18.767c0-11.73,7.891-17.917,26.025-20.476l30.285-4.269v6.829
		C1203.007,280.57,1189.785,295.497,1169.946,295.497 M1166.536,307.87c18.342,0,31.994-8.958,37.113-23.891
		c0.213,7.896,0.85,15.575,1.917,21.331h15.57c-2.342-8.746-3.409-20.689-3.409-37.326v-27.73c0-30.927-12.373-44.15-40.953-44.15
		c-24.528,0-41.17,13.865-42.45,35.834h16c0.855-15.145,10.663-23.466,26.663-23.466c18.129,0,25.808,8.746,25.808,30.715v1.71
		l-23.673,2.772c-16.854,2.135-27.305,5.119-34.984,9.596c-8.533,5.337-13.01,13.653-13.01,23.891
		C1131.127,295.497,1145.205,307.87,1166.536,307.87 M1055.833,211.032h19.626v64.631c0,18.984,7.036,31.569,27.725,31.569
		c5.974,0,10.238-0.642,14.72-1.922v-13.653c-3.627,0.855-6.611,1.497-10.881,1.497c-11.088,0-16.637-5.549-16.637-18.134v-63.989
		h27.518v-12.368h-27.518v-34.554l-14.927,6.399v28.155h-19.626V211.032z M996.751,295.497c-14.29,0-23.248-7.249-23.248-18.767
		c0-11.73,7.891-17.917,26.02-20.476l30.29-4.269v6.829C1029.813,280.57,1016.59,295.497,996.751,295.497 M993.342,307.87
		c18.342,0,31.994-8.958,37.113-23.891c0.212,7.896,0.85,15.575,1.917,21.331h15.57c-2.347-8.746-3.41-20.689-3.41-37.326v-27.73
		c0-30.927-12.373-44.15-40.953-44.15c-24.533,0-41.17,13.865-42.45,35.834h16c0.855-15.145,10.663-23.466,26.663-23.466
		c18.129,0,25.808,8.746,25.808,30.715v1.71l-23.678,2.772c-16.85,2.135-27.3,5.119-34.979,9.596
		c-8.533,5.337-13.01,13.653-13.01,23.891C957.933,295.497,972.011,307.87,993.342,307.87 M913.996,224.685v-26.02h-13.865v106.646
		h14.72v-48.844c0-13.44,1.917-27.73,11.73-37.538c5.332-5.119,12.585-8.109,22.823-8.109h1.705v-14.502
		c-1.492-0.212-2.56-0.212-4.052-0.212C930.633,196.105,918.903,208.26,913.996,224.685 M816.308,211.032h19.622v64.631
		c0,18.984,7.041,31.569,27.73,31.569c5.969,0,10.238-0.642,14.715-1.922v-13.653c-3.627,0.855-6.611,1.497-10.876,1.497
		c-11.093,0-16.637-5.549-16.637-18.134v-63.989h27.513v-12.368h-27.513v-34.554l-14.932,6.399v28.155h-19.622V211.032z
		 M748.693,308.937c35.621,0,54.175-19.197,54.175-43.937c0-27.093-17.917-37.331-41.165-42.02l-22.394-4.482
		c-18.347-3.839-26.875-12.585-26.875-27.725c0-16.854,13.435-27.305,33.911-27.305c23.678,0,36.476,11.093,38.606,33.916
		l16.637-3.202c-2.56-30.715-25.166-43.937-54.818-43.937c-31.564,0-51.403,16.85-51.403,42.02c0,24.528,15.57,36.259,37.326,40.523
		l22.398,4.482c18.772,3.627,30.715,9.813,30.715,29.435c0,19.834-16.849,28.58-36.471,28.58c-28.585,0-41.383-17.274-43.73-37.751
		l-16.637,2.347C691.103,288.036,710.725,308.937,748.693,308.937"/>
</g>
<rect style="fill:none;" width="1358" height="538"/>
</svg>
